<svg width="1600" height="600" viewBox="0 0 1600 600" xmlns="http://www.w3.org/2000/svg">
  <defs>
    <linearGradient id="accentText" x1="0" y1="0" x2="1" y2="0">
      <stop offset="0" stop-color="#3B82F6"/>
      <stop offset="0.5" stop-color="#06B6D4"/>
      <stop offset="1" stop-color="#8B5CF6"/>
    </linearGradient>

    <linearGradient id="borderGrad" x1="0" y1="0" x2="1" y2="1">
      <stop offset="0" stop-color="#3B82F6" stop-opacity="0.55"/>
      <stop offset="1" stop-color="#8B5CF6" stop-opacity="0.35"/>
    </linearGradient>

    <linearGradient id="panelFill" x1="0" y1="0" x2="0" y2="1">
      <stop offset="0" stop-color="#FFFFFF" stop-opacity="0.055"/>
      <stop offset="1" stop-color="#FFFFFF" stop-opacity="0.015"/>
    </linearGradient>

    <linearGradient id="lineGrad" x1="0" y1="0" x2="1" y2="0">
      <stop offset="0" stop-color="#3B82F6" stop-opacity="0.55"/>
      <stop offset="1" stop-color="#8B5CF6" stop-opacity="0.55"/>
    </linearGradient>

    <radialGradient id="bgGlowBlue" cx="50%" cy="50%" r="50%">
      <stop offset="0" stop-color="#3B82F6" stop-opacity="0.28"/>
      <stop offset="1" stop-color="#3B82F6" stop-opacity="0"/>
    </radialGradient>
    <radialGradient id="bgGlowPurple" cx="50%" cy="50%" r="50%">
      <stop offset="0" stop-color="#8B5CF6" stop-opacity="0.24"/>
      <stop offset="1" stop-color="#8B5CF6" stop-opacity="0"/>
    </radialGradient>
    <radialGradient id="bgGlowCyan" cx="50%" cy="50%" r="50%">
      <stop offset="0" stop-color="#06B6D4" stop-opacity="0.2"/>
      <stop offset="1" stop-color="#06B6D4" stop-opacity="0"/>
    </radialGradient>

    <filter id="blurLg" x="-60%" y="-60%" width="220%" height="220%">
      <feGaussianBlur stdDeviation="50"/>
    </filter>
    <filter id="blurSm" x="-60%" y="-60%" width="220%" height="220%">
      <feGaussianBlur stdDeviation="3"/>
    </filter>

    <pattern id="gridPattern" width="42" height="42" patternUnits="userSpaceOnUse">
      <path d="M0 0H42V42" fill="none" stroke="#9CA3AF" stroke-opacity="0.06" stroke-width="1"/>
    </pattern>

    <clipPath id="editorClip"><rect x="880" y="90" width="340" height="215" rx="14"/></clipPath>
    <clipPath id="browserClip"><rect x="1240" y="100" width="300" height="180" rx="14"/></clipPath>
    <clipPath id="termClip"><rect x="890" y="350" width="280" height="150" rx="14"/></clipPath>
    <clipPath id="avatarClip"><circle cx="700" cy="68" r="36"/></clipPath>
  </defs>

  <rect width="1600" height="600" fill="#0D1117"/>
  <rect width="1600" height="600" fill="url(#gridPattern)"/>

  <circle cx="1260" cy="150" r="220" fill="url(#bgGlowBlue)" filter="url(#blurLg)">
    <animate attributeName="opacity" values="0.7;1;0.7" dur="8s" repeatCount="indefinite"/>
  </circle>
  <circle cx="1420" cy="460" r="260" fill="url(#bgGlowPurple)" filter="url(#blurLg)">
    <animate attributeName="opacity" values="0.8;1;0.8" dur="9s" repeatCount="indefinite"/>
  </circle>
  <circle cx="960" cy="470" r="190" fill="url(#bgGlowCyan)" filter="url(#blurLg)">
    <animate attributeName="opacity" values="0.6;1;0.6" dur="10s" repeatCount="indefinite"/>
  </circle>
  <circle cx="160" cy="500" r="150" fill="url(#bgGlowBlue)" filter="url(#blurLg)" opacity="0.35"/>

  <g>
    <circle cx="150" cy="110" r="2" fill="#3B82F6" opacity="0.6"><animate attributeName="cy" values="110;85;110" dur="6s" repeatCount="indefinite"/></circle>
    <circle cx="700" cy="180" r="2.2" fill="#06B6D4" opacity="0.5"><animate attributeName="cy" values="180;155;180" dur="7s" repeatCount="indefinite"/></circle>
    <circle cx="800" cy="480" r="2" fill="#8B5CF6" opacity="0.55"><animate attributeName="cy" values="480;455;480" dur="8s" repeatCount="indefinite"/></circle>
    <circle cx="1550" cy="200" r="2.4" fill="#3B82F6" opacity="0.5"><animate attributeName="cy" values="200;175;200" dur="6.5s" repeatCount="indefinite"/></circle>
    <circle cx="1230" cy="540" r="2" fill="#06B6D4" opacity="0.45"><animate attributeName="cy" values="540;515;540" dur="7.5s" repeatCount="indefinite"/></circle>
    <circle cx="1010" cy="100" r="1.8" fill="#8B5CF6" opacity="0.5"><animate attributeName="cy" values="100;78;100" dur="9s" repeatCount="indefinite"/></circle>
    <circle cx="1500" cy="530" r="1.8" fill="#3B82F6" opacity="0.4"><animate attributeName="cy" values="530;508;530" dur="6.8s" repeatCount="indefinite"/></circle>
  </g>

  <circle cx="1520" cy="90" r="26" fill="none" stroke="#8B5CF6" stroke-opacity="0.25" stroke-width="1"/>
  <rect x="1500" y="480" width="30" height="30" fill="none" stroke="#06B6D4" stroke-opacity="0.2" stroke-width="1" transform="rotate(20 1515 495)"/>
  <circle cx="840" cy="380" r="4" fill="none" stroke="#3B82F6" stroke-opacity="0.3" stroke-width="1"/>

  <g font-family="'Segoe UI','Inter',-apple-system,sans-serif">
    <text x="68" y="158" font-size="56" font-weight="800" letter-spacing="-1.5" fill="url(#accentText)">Muhammad Rashed</text>
    <text x="70" y="192" font-size="20" font-weight="600" fill="url(#accentText)">Full Stack (MERN) Developer</text>

    <text x="70" y="226" font-size="15" fill="#9CA3AF">Building scalable ERP, SaaS, and eCommerce platforms with clean architecture,</text>
    <text x="70" y="248" font-size="15" fill="#9CA3AF">modern technologies, and secure, production-ready backend systems.</text>

    <g font-size="13" fill="#9CA3AF" font-family="'Segoe UI','Inter',-apple-system,sans-serif">
      <g transform="translate(70,265)" stroke="#06B6D4" stroke-width="1.4" fill="none" stroke-linejoin="round" stroke-linecap="round">
        <rect x="0" y="0" width="17" height="13" rx="2"/>
        <path d="M1,2 L8.5,8.5 L16,2"/>
      </g>
      <text x="94" y="276">rashedjaman768@gmail.com</text>

      <g transform="translate(330,265)" stroke="#8B5CF6" stroke-width="1.4" fill="none" stroke-linejoin="round" stroke-linecap="round">
        <path d="M0.5,1 C0.5,0.4 1,0 1.6,0.2 L4,1 C4.6,1.2 4.9,1.9 4.6,2.5 L3.7,4.3 C4.3,5.7 5.4,6.8 6.8,7.4 L8.6,6.5 C9.2,6.2 9.9,6.5 10.1,7.1 L10.9,9.5 C11.1,10.1 10.7,10.6 10.1,10.6 C5,10.8 0.3,6.1 0.5,1 Z"/>
      </g>
      <text x="346" y="276">+880 1781-131905</text>

      <g transform="translate(70,287)" stroke="#3B82F6" stroke-width="1.5" fill="none" stroke-linejoin="round" stroke-linecap="round">
        <path d="M6,2.5 L7.5,1 C8.6,-0.1 10.4,-0.1 11.5,1 C12.6,2.1 12.6,3.9 11.5,5 L10,6.5"/>
        <path d="M8,9.5 L6.5,11 C5.4,12.1 3.6,12.1 2.5,11 C1.4,9.9 1.4,8.1 2.5,7 L4,5.5"/>
      </g>
      <text x="94" y="298">mrashed21.me</text>

      <g transform="translate(330,287)" stroke="#06B6D4" stroke-width="1.5" fill="none" stroke-linejoin="round" stroke-linecap="round">
        <path d="M4.5,1 L0.5,6 L4.5,11"/>
        <path d="M8,1 L12,6 L8,11"/>
      </g>
      <text x="352" y="298">github.com/mrashed21</text>
    </g>

    <g font-size="12.5" font-weight="600" fill="#E5E7EB">
      <rect x="70" y="316" width="90" height="34" rx="17" fill="url(#panelFill)" stroke="url(#borderGrad)"/>
      <text x="115" y="338" text-anchor="middle">Next.js</text>

      <rect x="170" y="316" width="75" height="34" rx="17" fill="url(#panelFill)" stroke="url(#borderGrad)"/>
      <text x="207" y="338" text-anchor="middle">React</text>

      <rect x="255" y="316" width="110" height="34" rx="17" fill="url(#panelFill)" stroke="url(#borderGrad)"/>
      <text x="310" y="338" text-anchor="middle">TypeScript</text>

      <rect x="375" y="316" width="90" height="34" rx="17" fill="url(#panelFill)" stroke="url(#borderGrad)"/>
      <text x="420" y="338" text-anchor="middle">Node.js</text>

      <rect x="475" y="316" width="110" height="34" rx="17" fill="url(#panelFill)" stroke="url(#borderGrad)"/>
      <text x="530" y="338" text-anchor="middle">Express.js</text>

      <rect x="595" y="316" width="90" height="34" rx="17" fill="url(#panelFill)" stroke="url(#borderGrad)"/>
      <text x="640" y="338" text-anchor="middle">MongoDB</text>

      <rect x="70" y="360" width="110" height="34" rx="17" fill="url(#panelFill)" stroke="url(#borderGrad)"/>
      <text x="125" y="382" text-anchor="middle">PostgreSQL</text>

      <rect x="190" y="360" width="80" height="34" rx="17" fill="url(#panelFill)" stroke="url(#borderGrad)"/>
      <text x="230" y="382" text-anchor="middle">Prisma</text>

      <rect x="280" y="360" width="140" height="34" rx="17" fill="url(#panelFill)" stroke="url(#borderGrad)"/>
      <text x="350" y="382" text-anchor="middle">Redux Toolkit</text>

      <rect x="430" y="360" width="120" height="34" rx="17" fill="url(#panelFill)" stroke="url(#borderGrad)"/>
      <text x="490" y="382" text-anchor="middle">Tailwind CSS</text>

      <rect x="560" y="360" width="100" height="34" rx="17" fill="url(#panelFill)" stroke="url(#borderGrad)"/>
      <text x="610" y="382" text-anchor="middle">shadcn/ui</text>

      <rect x="670" y="360" width="80" height="34" rx="17" fill="url(#panelFill)" stroke="url(#borderGrad)"/>
      <text x="710" y="382" text-anchor="middle">Docker</text>

      <rect x="70" y="404" width="65" height="34" rx="17" fill="url(#panelFill)" stroke="url(#borderGrad)"/>
      <text x="102" y="426" text-anchor="middle">Git</text>

      <rect x="145" y="404" width="95" height="34" rx="17" fill="url(#panelFill)" stroke="url(#borderGrad)"/>
      <text x="192" y="426" text-anchor="middle">REST API</text>
    </g>

    <g>
      <rect x="70" y="478" width="190" height="86" rx="16" fill="url(#panelFill)" stroke="url(#borderGrad)"/>
      <text x="165" y="520" text-anchor="middle" font-size="30" font-weight="800" fill="url(#accentText)">1+</text>
      <text x="165" y="545" text-anchor="middle" font-size="11.5" fill="#9CA3AF" letter-spacing="0.3">Years of Experience</text>

      <rect x="280" y="478" width="190" height="86" rx="16" fill="url(#panelFill)" stroke="url(#borderGrad)"/>
      <text x="375" y="520" text-anchor="middle" font-size="30" font-weight="800" fill="url(#accentText)">10+</text>
      <text x="375" y="545" text-anchor="middle" font-size="11.5" fill="#9CA3AF" letter-spacing="0.3">Production Apps</text>
    </g>
  </g>

  <g fill="none" stroke="url(#lineGrad)" stroke-width="1.3" opacity="0.55">
    <path d="M1050,205 C1000,220 970,260 995,300" />
    <path d="M1220,300 C1260,295 1300,290 1350,290" />
    <path d="M1030,340 C1000,360 970,400 990,430" />
  </g>
  <circle r="3" fill="#06B6D4">
    <animateMotion path="M1050,205 C1000,220 970,260 995,300" dur="3.2s" repeatCount="indefinite"/>
  </circle>
  <circle r="3" fill="#8B5CF6">
    <animateMotion path="M1220,300 C1260,295 1300,290 1350,290" dur="3.4s" repeatCount="indefinite"/>
  </circle>

  <g stroke="url(#lineGrad)" stroke-width="1" opacity="0.6" fill="none">
    <line x1="1080" y1="240" x2="1025" y2="192"/>
    <line x1="1080" y1="240" x2="1142" y2="196"/>
    <line x1="1080" y1="240" x2="1015" y2="288"/>
    <line x1="1080" y1="240" x2="1148" y2="298"/>
    <line x1="1080" y1="240" x2="1082" y2="182"/>
  </g>
  <circle r="2.6" fill="#3B82F6"><animateMotion path="M1080,240 L1142,196" dur="2.6s" repeatCount="indefinite"/></circle>
  <g fill="url(#panelFill)" stroke="url(#accentText)" stroke-width="1.4">
    <polygon points="1080,222 1096,231 1096,249 1080,258 1064,249 1064,231"/>
  </g>
  <g fill="#0D1117" stroke="url(#accentText)" stroke-width="1.4">
    <circle cx="1025" cy="192" r="6"/>
    <circle cx="1142" cy="196" r="6"/>
    <circle cx="1015" cy="288" r="6"/>
    <circle cx="1148" cy="298" r="6"/>
    <circle cx="1082" cy="182" r="5"/>
  </g>

  <g transform="translate(1180,300)">
    <g>
      <animateTransform attributeName="transform" type="rotate" from="0" to="360" dur="26s" repeatCount="indefinite"/>
      <ellipse rx="46" ry="18" fill="none" stroke="#3B82F6" stroke-opacity="0.7" stroke-width="2"/>
      <ellipse rx="46" ry="18" fill="none" stroke="#06B6D4" stroke-opacity="0.7" stroke-width="2" transform="rotate(60)"/>
      <ellipse rx="46" ry="18" fill="none" stroke="#8B5CF6" stroke-opacity="0.7" stroke-width="2" transform="rotate(120)"/>
    </g>
    <circle r="6" fill="#06B6D4"/>
  </g>

  <g>
    <rect x="1326" y="288" width="88" height="44" fill="url(#panelFill)"/>
    <line x1="1326" y1="288" x2="1326" y2="332" stroke="url(#borderGrad)" stroke-width="1.2"/>
    <line x1="1414" y1="288" x2="1414" y2="332" stroke="url(#borderGrad)" stroke-width="1.2"/>
    <line x1="1326" y1="304" x2="1414" y2="304" stroke="#9CA3AF" stroke-opacity="0.15" stroke-width="1"/>
    <line x1="1326" y1="318" x2="1414" y2="318" stroke="#9CA3AF" stroke-opacity="0.15" stroke-width="1"/>
    <ellipse cx="1370" cy="288" rx="44" ry="10" fill="url(#panelFill)" stroke="url(#borderGrad)" stroke-width="1.2"/>
    <ellipse cx="1370" cy="332" rx="44" ry="10" fill="url(#panelFill)" stroke="url(#borderGrad)" stroke-width="1.2"/>
  </g>

  <g fill="url(#panelFill)" stroke="url(#borderGrad)" stroke-width="1.2">
    <circle cx="1502" cy="398" r="16"/>
    <circle cx="1532" cy="386" r="20"/>
    <circle cx="1562" cy="398" r="14"/>
    <rect x="1492" y="398" width="86" height="20" rx="10"/>
  </g>

  <g>
    <animateTransform attributeName="transform" type="translate" values="0,0; 0,-9; 0,0" dur="6.5s" repeatCount="indefinite"/>
    <rect x="880" y="90" width="340" height="215" rx="14" fill="url(#panelFill)" stroke="url(#borderGrad)" stroke-width="1.2"/>
    <g clip-path="url(#editorClip)">
      <rect x="880" y="90" width="340" height="32" fill="#FFFFFF" opacity="0.03"/>
      <circle cx="898" cy="106" r="5" fill="#FF5F56"/>
      <circle cx="914" cy="106" r="5" fill="#FFBD2E"/>
      <circle cx="930" cy="106" r="5" fill="#27C93F"/>
      <text x="1200" y="110" text-anchor="end" font-family="'SFMono-Regular',Consolas,monospace" font-size="11" fill="#9CA3AF">index.tsx</text>

      <g font-family="'SFMono-Regular',Consolas,monospace" font-size="13">
        <text x="900" y="148"><tspan fill="#8B5CF6">import</tspan><tspan fill="#E5E7EB"> { App } </tspan><tspan fill="#8B5CF6">from</tspan><tspan fill="#06B6D4"> './core'</tspan><tspan fill="#E5E7EB">;</tspan></text>
        <text x="900" y="174"><tspan fill="#8B5CF6">function</tspan><tspan fill="#FFFFFF"> server</tspan><tspan fill="#9CA3AF">() {</tspan></text>
        <text x="922" y="200"><tspan fill="#8B5CF6">return</tspan><tspan fill="#FFFFFF"> app</tspan><tspan fill="#9CA3AF">.</tspan><tspan fill="#06B6D4">render</tspan><tspan fill="#9CA3AF">();</tspan></text>
        <text x="900" y="226" fill="#9CA3AF">}</text>
        <text x="900" y="252" fill="#4B5563" font-style="italic">// production ready</text>
      </g>
      <rect x="900" y="240" width="7" height="14" fill="#3B82F6">
        <animate attributeName="opacity" values="1;0;1" dur="1s" repeatCount="indefinite"/>
      </rect>
    </g>
  </g>

  <g>
    <animateTransform attributeName="transform" type="translate" values="0,0; 0,-7; 0,0" dur="7.5s" repeatCount="indefinite"/>
    <rect x="1240" y="100" width="300" height="180" rx="14" fill="url(#panelFill)" stroke="url(#borderGrad)" stroke-width="1.2"/>
    <g clip-path="url(#browserClip)">
      <rect x="1240" y="100" width="300" height="30" fill="#FFFFFF" opacity="0.03"/>
      <circle cx="1258" cy="115" r="4" fill="#FF5F56"/>
      <circle cx="1272" cy="115" r="4" fill="#FFBD2E"/>
      <circle cx="1286" cy="115" r="4" fill="#27C93F"/>
      <rect x="1310" y="107" width="210" height="16" rx="8" fill="#161B22" stroke="#30363D" stroke-width="1"/>
      <rect x="1258" y="148" width="264" height="14" rx="4" fill="#FFFFFF" opacity="0.05"/>
      <rect x="1258" y="172" width="124" height="90" rx="8" fill="url(#panelFill)" stroke="url(#borderGrad)" stroke-width="1"/>
      <rect x="1394" y="172" width="128" height="90" rx="8" fill="url(#panelFill)" stroke="url(#borderGrad)" stroke-width="1"/>
      <rect x="1270" y="184" width="80" height="6" rx="3" fill="#9CA3AF" opacity="0.35"/>
      <rect x="1270" y="198" width="96" height="6" rx="3" fill="#9CA3AF" opacity="0.22"/>
      <rect x="1406" y="184" width="90" height="6" rx="3" fill="#9CA3AF" opacity="0.35"/>
      <rect x="1406" y="198" width="70" height="6" rx="3" fill="#9CA3AF" opacity="0.22"/>
    </g>
  </g>

  <g>
    <animateTransform attributeName="transform" type="translate" values="0,0; 0,-8; 0,0" dur="8s" repeatCount="indefinite"/>
    <rect x="890" y="350" width="280" height="150" rx="14" fill="url(#panelFill)" stroke="url(#borderGrad)" stroke-width="1.2"/>
    <g clip-path="url(#termClip)">
      <rect x="890" y="350" width="280" height="28" fill="#FFFFFF" opacity="0.03"/>
      <circle cx="906" cy="364" r="4" fill="#FF5F56"/>
      <circle cx="920" cy="364" r="4" fill="#FFBD2E"/>
      <circle cx="934" cy="364" r="4" fill="#27C93F"/>
      <text x="1160" y="368" text-anchor="end" font-family="'SFMono-Regular',Consolas,monospace" font-size="11" fill="#9CA3AF">zsh</text>

      <g font-family="'SFMono-Regular',Consolas,monospace" font-size="12.5">
        <text x="908" y="400"><tspan fill="#06B6D4">➜</tspan><tspan fill="#9CA3AF"> ~/project </tspan><tspan fill="#FFFFFF">git push origin main</tspan></text>
        <text x="908" y="422" fill="#8B5CF6">Enumerating objects: 24, done.</text>
        <text x="908" y="444"><tspan fill="#06B6D4">➜</tspan><tspan fill="#9CA3AF"> ~/project </tspan></text>
      </g>
      <rect x="960" y="434" width="7" height="14" fill="#06B6D4">
        <animate attributeName="opacity" values="1;0;1" dur="1s" repeatCount="indefinite"/>
      </rect>
    </g>
  </g>

  <g>
    <animateTransform attributeName="transform" type="translate" values="0,0; 0,-6; 0,0" dur="7s" repeatCount="indefinite"/>
    <rect x="1185" y="345" width="280" height="205" rx="14" fill="url(#panelFill)" stroke="url(#borderGrad)" stroke-width="1.2"/>
    <g>
      <rect x="1185" y="345" width="280" height="28" fill="#FFFFFF" opacity="0.03" rx="14"/>
      <circle cx="1201" cy="359" r="4" fill="#FF5F56"/>
      <circle cx="1215" cy="359" r="4" fill="#FFBD2E"/>
      <circle cx="1229" cy="359" r="4" fill="#27C93F"/>
      <text x="1325" y="363" text-anchor="middle" font-family="'SFMono-Regular',Consolas,monospace" font-size="11" font-weight="600" fill="#9CA3AF" letter-spacing="0.5">DHAKA (GMT+6)</text>
      
      <circle cx="1325" cy="432" r="52" fill="#0D1117" stroke="url(#borderGrad)" stroke-width="2"/>
      
      <g stroke="#4B5563" stroke-width="2" stroke-linecap="round">
        <line x1="1325" y1="380" x2="1325" y2="387"/>
        <line x1="1325" y1="380" x2="1325" y2="387" transform="rotate(30, 1325, 432)"/>
        <line x1="1325" y1="380" x2="1325" y2="387" transform="rotate(60, 1325, 432)"/>
        <line x1="1325" y1="380" x2="1325" y2="387" transform="rotate(90, 1325, 432)"/>
        <line x1="1325" y1="380" x2="1325" y2="387" transform="rotate(120, 1325, 432)"/>
        <line x1="1325" y1="380" x2="1325" y2="387" transform="rotate(150, 1325, 432)"/>
        <line x1="1325" y1="380" x2="1325" y2="387" transform="rotate(180, 1325, 432)"/>
        <line x1="1325" y1="380" x2="1325" y2="387" transform="rotate(210, 1325, 432)"/>
        <line x1="1325" y1="380" x2="1325" y2="387" transform="rotate(240, 1325, 432)"/>
        <line x1="1325" y1="380" x2="1325" y2="387" transform="rotate(270, 1325, 432)"/>
        <line x1="1325" y1="380" x2="1325" y2="387" transform="rotate(300, 1325, 432)"/>
        <line x1="1325" y1="380" x2="1325" y2="387" transform="rotate(330, 1325, 432)"/>
      </g>
      
      <g transform="translate(1325,432)">
        <g>
          <animateTransform attributeName="transform" type="rotate" from="114.5" to="474.5" dur="43200s" repeatCount="indefinite"/>
          <line x1="0" y1="0" x2="0" y2="-25" stroke="#E5E7EB" stroke-width="3.5" stroke-linecap="round"/>
        </g>
        <g>
          <animateTransform attributeName="transform" type="rotate" from="298.8" to="658.8" dur="3600s" repeatCount="indefinite"/>
          <line x1="0" y1="0" x2="0" y2="-38" stroke="#9CA3AF" stroke-width="2.5" stroke-linecap="round"/>
        </g>
        <g>
          <animateTransform attributeName="transform" type="rotate" from="288" to="648" dur="60s" repeatCount="indefinite"/>
          <line x1="0" y1="8" x2="0" y2="-46" stroke="#06B6D4" stroke-width="1.5" stroke-linecap="round"/>
        </g>
        <circle cx="0" cy="0" r="4" fill="#E5E7EB"/>
        <circle cx="0" cy="0" r="1.5" fill="#06B6D4"/>
      </g>
      
      <text x="1325" y="512" text-anchor="middle" font-family="'SFMono-Regular',Consolas,monospace" font-size="17" font-weight="700" fill="#E5E7EB" letter-spacing="1">03:49:48 <tspan font-size="12" fill="#06B6D4">PM</tspan></text>
      <text x="1325" y="532" text-anchor="middle" font-family="'Segoe UI','Inter',sans-serif" font-size="10" font-weight="600" fill="#9CA3AF" letter-spacing="0.8">TUESDAY, 07 JUL 2026</text>
    </g>
  </g>

  <g>
    <rect x="900" y="500" width="130" height="24" rx="6" fill="url(#panelFill)" stroke="url(#borderGrad)" stroke-width="1"/>
    <circle cx="913" cy="512" r="3" fill="#06B6D4"><animate attributeName="opacity" values="1;0.2;1" dur="2s" repeatCount="indefinite"/></circle>
    <rect x="900" y="528" width="130" height="24" rx="6" fill="url(#panelFill)" stroke="url(#borderGrad)" stroke-width="1"/>
    <circle cx="913" cy="540" r="3" fill="#3B82F6"><animate attributeName="opacity" values="1;0.2;1" dur="2.4s" repeatCount="indefinite"/></circle>
    <rect x="900" y="556" width="130" height="24" rx="6" fill="url(#panelFill)" stroke="url(#borderGrad)" stroke-width="1"/>
    <circle cx="913" cy="568" r="3" fill="#8B5CF6"><animate attributeName="opacity" values="1;0.2;1" dur="2.8s" repeatCount="indefinite"/></circle>
  </g>

  <g fill="none" stroke="url(#lineGrad)" stroke-width="2">
    <path d="M1080,580 H1400"/>
    <path d="M1240,580 C1260,580 1260,565 1290,565 H1360 C1380,565 1380,580 1400,580"/>
  </g>
  <g fill="#3B82F6">
    <circle cx="1100" cy="580" r="4"/>
    <circle cx="1380" cy="580" r="4" fill="#8B5CF6"/>
  </g>
  <g fill="#06B6D4">
    <circle cx="1290" cy="565" r="4"/>
    <circle cx="1360" cy="565" r="4"/>
  </g>
  <g fill="#8B5CF6">
    <circle cx="1240" cy="580" r="4"/>
    <circle cx="1400" cy="580" r="4"/>
  </g>
</svg>